<?xml version="1.0" encoding="UTF-8"?>
<svg width="1024px" height="1024px" viewBox="0 0 1024 1024" version="1.1" xmlns="http://www.w3.org/2000/svg" xmlns:xlink="http://www.w3.org/1999/xlink">
    <!-- Generator: Sketch 49 (51002) - http://www.bohemiancoding.com/sketch -->
    <title>LinkIt</title>
    <defs></defs>
    <g id="linkit" stroke="none" stroke-width="1" fill="none" fill-rule="evenodd">
        <path d="M1,512 C1,929.495059 4.94377067,1023 512,1023 C1019.05623,1023 1023,929.495059 1023,512 C1023,94.5049407 1019.05623,1 512,1 C4.94377067,1 1,94.5049407 1,512 Z" id="bg" fill="#0000EE"></path>
        <path d="M747.540541,232 C759.522601,232 769.927889,236.09902 778.756757,244.297297 C787.585625,252.495574 792,262.585507 792,274.567568 C792,286.549628 787.585625,296.954916 778.756757,305.783784 L711.594595,373.891892 L722.945946,386.189189 C746.910068,410.153311 758.891892,438.846689 758.891892,472.27027 C758.891892,505.693851 746.910068,534.38723 722.945946,558.351351 L559.297297,722.945946 C535.333176,746.910032 506.324443,758.891892 472.27027,758.891892 C438.846689,758.891892 410.153311,746.910032 386.189189,722.945946 L373.891892,710.648649 L305.783784,778.756757 C296.954916,787.58563 286.864924,792 275.513514,792 C263.531476,792 253.126166,787.58563 244.297297,778.756757 C236.099058,769.927889 232,759.522578 232,747.540541 C232,735.558503 236.099058,725.468512 244.297297,717.27027 L312.405405,650.108108 L300.108108,637.810811 C276.77466,614.477399 265.108108,585.468666 265.108108,550.783784 C265.108108,516.729611 276.77466,488.036115 300.108108,464.702703 L464.702703,300.108108 C488.036115,276.774696 516.88723,265.108108 551.256757,265.108108 C585.626284,265.108108 614.477399,276.774696 637.810811,300.108108 L650.108108,312.405405 L717.27027,244.297297 C725.468547,236.09902 735.55848,232 747.540541,232 Z M661.837081,497.299103 C668.141296,490.994887 671.293286,482.48442 671.293286,471.767347 C671.293286,461.680649 668.141296,453.485429 661.837081,447.181213 L649.544013,434.888145 L621.175396,463.256762 C612.979939,471.452219 602.578231,475.54983 589.969918,475.54983 C577.991978,475.54983 567.905517,471.452219 559.71006,463.256762 C551.514603,455.061305 547.416992,444.974843 547.416992,432.996904 C547.416992,421.018965 551.514603,410.617257 559.71006,401.791426 L588.078677,373.422809 L575.785609,361.129741 C568.851019,354.195151 560.65568,350.727915 551.199475,350.727915 C541.112777,350.727915 532.60231,354.195151 525.667719,361.129741 L361.129741,525.667719 C354.195151,532.60231 350.727915,540.797648 350.727915,550.253854 C350.727915,560.340552 354.195151,568.851019 361.129741,575.785609 L373.422809,588.078677 L401.791426,559.71006 C410.617257,550.884228 421.018965,546.471372 432.996904,546.471372 C444.344351,546.471372 454.430931,550.884228 463.256762,559.71006 C471.452219,567.905517 475.54983,577.991978 475.54983,589.969918 C475.54983,601.947857 471.452219,612.349565 463.256762,621.175396 L434.888145,649.544013 L447.181213,660.89146 C454.115803,667.82605 462.311142,671.293286 471.767347,671.293286 C481.854045,671.293286 490.364512,667.82605 497.299103,660.89146 L661.837081,497.299103 Z" id="icon" fill="#FFFFFF"></path>
    </g>
</svg>
